<svg data-v-0dd9719b="" version="1.0" xmlns="http://www.w3.org/2000/svg" xmlns:xlink="http://www.w3.org/1999/xlink" width="100%" height="100%" viewBox="0 0 340.000000 250.000000" preserveAspectRatio="xMidYMid meet" color-interpolation-filters="sRGB" style="margin: auto;"> <rect data-v-0dd9719b="" x="0" y="0" width="100%" height="100%" fill="#040e29" fill-opacity="1" class="background"></rect> <rect data-v-0dd9719b="" x="0" y="0" width="100%" height="100%" fill="url(#watermark)" fill-opacity="1" class="watermarklayer"></rect> <g data-v-0dd9719b="" class="iconmbgsvg" transform="translate(89.32281494140625,78.25540161132812)"><g fill="#ffffff" hollow-target="text"><g mask="url(#aa80b6ca-59af-4a04-a20e-1eeb29f805d5)"><g><rect fill="#ffffff" fill-opacity="0" stroke-width="2" x="0" y="0" width="97.5" height="72.06528005676526" class="image-rect"></rect> <svg filter="url(#colors6495607707)" x="0" y="0" width="97.5" height="72.06528005676526" filtersec="colorsf5689670167" class="image-svg-svg primary" style="overflow: visible;"><svg xmlns="http://www.w3.org/2000/svg" viewBox="0 0 46 34"><g><path d="M39 34H7a7 7 0 0 1-7-7V7a7 7 0 0 1 7-7h32a7 7 0 0 1 7 7v20a7 7 0 0 1-7 7z"></path></g></svg></svg> <defs><filter id="colors6495607707"><feColorMatrix type="matrix" values="0 0 0 0 0  0 0 0 0 0.9453125  0 0 0 0 0.9921875  0 0 0 1 0" class="icon-fecolormatrix"></feColorMatrix></filter> <filter id="colorsf5689670167"><feColorMatrix type="matrix" values="0 0 0 0 0.99609375  0 0 0 0 0.99609375  0 0 0 0 0.99609375  0 0 0 1 0" class="icon-fecolormatrix"></feColorMatrix></filter> <filter id="colorsb9470665182"><feColorMatrix type="matrix" values="0 0 0 0 0  0 0 0 0 0  0 0 0 0 0  0 0 0 1 0" class="icon-fecolormatrix"></feColorMatrix></filter></defs></g><rect v-gra="id" width="109.5" height="84.06527709960938" transform="translate(-6, -6)" style="pointer-events:none;" fill="url(#aBfoWOoDXKyg5kQ648dRR)"></rect></g> <g transform="translate(76.17000198364258,39.57607650756836)"><g data-gra="path-name" fill-rule="" class="tp-name" transform="translate(0,0)"><g transform="scale(1)"><g><path d="M10.3 0L2.93 0 2.93-27.13 10.3-27.13 10.3 0ZM33.9-8.24L33.9-8.24Q33.9-5.71 32.62-3.76 31.34-1.8 28.93-0.71 26.51 0.37 23.27 0.37L23.27 0.37Q20.56 0.37 18.72-0.01 16.88-0.39 14.9-1.34L14.9-1.34 14.9-7.87Q17-6.79 19.26-6.19 21.52-5.58 23.42-5.58L23.42-5.58Q25.05-5.58 25.81-6.15 26.57-6.72 26.57-7.61L26.57-7.61Q26.57-8.16 26.26-8.58 25.96-9 25.28-9.43 24.6-9.85 21.67-11.17L21.67-11.17Q19.02-12.38 17.69-13.51 16.37-14.64 15.73-16.11 15.08-17.57 15.08-19.58L15.08-19.58Q15.08-23.32 17.81-25.42 20.54-27.52 25.31-27.52L25.31-27.52Q29.52-27.52 33.9-25.57L33.9-25.57 31.65-19.91Q27.85-21.65 25.09-21.65L25.09-21.65Q23.66-21.65 23.01-21.15 22.36-20.65 22.36-19.91L22.36-19.91Q22.36-19.11 23.18-18.48 24.01-17.85 27.67-16.18L27.67-16.18Q31.17-14.6 32.54-12.79 33.9-10.98 33.9-8.24ZM45.31-10.19L45.31 0 38.09 0 38.09-27.13 54.12-27.13 54.12-21.25 45.31-21.25 45.31-16.07 53.44-16.07 53.44-10.19 45.31-10.19ZM56.44 8.52L56.44 8.52Q54.44 8.52 52.64 8.13L52.64 8.13 52.64 2.43Q53.23 2.54 53.9 2.68 54.57 2.82 55.35 2.82L55.35 2.82Q57.17 2.82 57.95 1.73 58.73 0.63 58.73-2.02L58.73-2.02 58.73-27.13 66.09-27.13 66.09-2.65Q66.09 2.86 63.68 5.69 61.27 8.52 56.44 8.52Z" transform="translate(-2.930000066757202, 27.520000457763672)"></path></g> <!----> <!----> <!----> <!----> <!----> <!----> <!----></g></g> <g data-gra="path-slogan" fill-rule="" class="tp-slogan" fill="url(#8ebb1be7-d007-4cf3-a8fd-38b79b22fae4)" transform="translate(-22.020004272460938,43.040000915527344)"><!----> <!----> <g transform="scale(1, 1)"><g transform="scale(1)"><path d="M7.45-9.70L7.45-9.70Q8.39-9.56 8.67-9.33L8.67-9.33Q8.67-9.28 8.58-9.14L8.58-9.14Q8.16-8.72 7.69-7.92L7.69-7.92L9.19-7.92Q10.45-7.92 11.48-8.02L11.48-8.02L11.48-6.89Q10.97-6.98 9.19-6.98L9.19-6.98L2.63-6.98Q1.59-6.98 0.52-6.89L0.52-6.89L0.52-8.02Q1.83-7.92 2.58-7.92L2.58-7.92L4.17-7.92Q3.84-8.72 3.38-9.28L3.38-9.28L4.27-9.61Q4.73-9.05 5.20-8.30L5.20-8.30L4.31-7.92L6.70-7.92Q7.17-8.53 7.45-9.70ZM9.14-6.38L9.14-6.38Q10.36-6.38 10.41-6.23L10.41-6.23Q10.41-6.14 10.31-6L10.31-6Q10.17-5.72 10.17-5.39L10.17-5.39L10.17 0.19Q10.22 1.13 8.06 1.17L8.06 1.17Q8.06 0.61 7.64 0.05L7.64 0.05Q9.09 0.23 9.19-0.42L9.19-0.42L9.19-5.34Q9.19-5.77 9.14-6.38ZM6.98-5.81L6.98-5.81Q8.16-5.81 8.20-5.67L8.20-5.67Q8.20-5.58 8.16-5.39L8.16-5.39Q8.06-5.16 8.06-4.97L8.06-4.97L8.06-2.58Q8.06-1.45 8.11-0.94L8.11-0.94L6.98-0.94Q6.98-1.08 6.98-1.50L6.98-1.50Q7.03-2.20 7.03-2.63L7.03-2.63L7.03-5.11Q7.03-5.81 6.98-5.81ZM5.02-5.44L2.63-5.44L2.63-4.22L5.02-4.22L5.02-5.44ZM5.02-2.25L5.02-3.52L2.63-3.52L2.63-2.25L5.02-2.25ZM1.64-6.28L1.64-6.28Q2.30-6.19 2.72-6.23L2.72-6.23L4.92-6.23Q5.30-6.19 6-6.28L6-6.28Q5.86-5.86 5.91-5.58L5.91-5.58L5.91 0.05Q5.95 0.98 4.08 1.03L4.08 1.03Q4.08 0.38 3.61-0.05L3.61-0.05Q4.92 0.14 5.02-0.19L5.02-0.19L5.02-1.55L2.63-1.55L2.63-0.38Q2.63 0.42 2.77 0.98L2.77 0.98L1.59 0.98Q1.73 0.05 1.73-0.33L1.73-0.33L1.73-5.58Q1.73-5.86 1.64-6.28ZM22.36-9.47L22.36-9.47Q23.44-9.47 23.44-9.33L23.44-9.33Q23.44-9.28 23.44-9.19L23.44-9.19Q23.34-9 23.34-8.86L23.34-8.86L23.34-7.08L24.70-7.08L24.70-8.30Q24.70-8.77 24.66-8.91L24.66-8.91Q24.75-8.91 24.98-8.86L24.98-8.86Q25.78-8.86 25.73-8.72L25.73-8.72Q25.73-8.67 25.69-8.58L25.69-8.58Q25.59-8.39 25.59-7.97L25.59-7.97L25.59-7.41Q25.59-6.52 25.69-6.23L25.69-6.23Q24.70-6.33 23.63-6.33L23.63-6.33L21.94-6.33Q20.91-6.33 20.25-6.23L20.25-6.23Q20.34-6.75 20.34-7.59L20.34-7.59Q20.34-8.67 20.25-8.95L20.25-8.95Q21.28-8.95 21.33-8.81L21.33-8.81Q21.33-8.77 21.28-8.72L21.28-8.72Q21.23-8.53 21.23-8.34L21.23-8.34L21.23-7.08L22.45-7.08L22.45-8.67Q22.45-9.33 22.36-9.47ZM17.02-9L18-9.23Q18.23-8.81 18.66-7.55L18.66-7.55L17.58-7.27Q17.44-8.02 17.02-9L17.02-9ZM15.56-6.23L15.56-7.08Q15.66-7.08 16.03-7.08L16.03-7.08Q16.59-7.03 16.97-7.03L16.97-7.03L18.28-7.03Q19.31-7.08 19.83-7.13L19.83-7.13L19.83-6.23Q19.55-6.28 18.28-6.28L18.28-6.28L16.92-6.28Q15.94-6.28 15.56-6.23L15.56-6.23ZM18.47-5.77L18.47-5.77Q19.59-5.58 19.55-5.48L19.55-5.48Q19.55-5.44 19.50-5.34L19.50-5.34Q19.31-5.11 19.22-4.78L19.22-4.78Q18.84-2.95 18.47-1.59L18.47-1.59L19.59-1.83L19.55-1.03Q18.61-0.80 17.48-0.47L17.48-0.47Q16.13-0.05 15.80 0L15.80 0Q15.61-0.56 15.52-1.08L15.52-1.08L17.67-1.41Q18.28-3.89 18.47-5.77ZM16.27-5.44L17.16-5.53Q17.44-4.17 17.58-2.39L17.58-2.39L16.64-2.30Q16.50-4.03 16.27-5.44L16.27-5.44ZM26.39-5.53L26.39-5.53L26.39-4.64Q25.59-4.73 24.47-4.73L24.47-4.73L23.25-4.73Q23.16-4.36 22.92-3.66L22.92-3.66L24.33-3.66Q25.27-3.66 25.97-3.66L25.97-3.66Q25.88-2.91 25.88-2.20L25.88-2.20L25.88 0.14Q26.06 0.80 24.42 0.94L24.42 0.94Q24.38 0.33 24.09-0.05L24.09-0.05Q25.13 0.05 25.08-0.42L25.08-0.42L25.08-2.91L24-2.91L24-1.03Q24-0.56 24.05-0.14L24.05-0.14L23.20-0.14Q23.30-0.42 23.30-1.03L23.30-1.03L23.30-2.91L22.41-2.91L22.41-1.13Q22.41-0.14 22.45-0.09L22.45-0.09L21.61-0.09Q21.70-0.23 21.70-1.17L21.70-1.17L21.70-2.91L20.86-2.91L20.86-0.33Q20.86 0.70 20.91 0.75L20.91 0.75L19.97 0.75Q20.06 0.47 20.06-0.33L20.06-0.33L20.06-2.25Q20.06-3 19.97-3.70L19.97-3.70Q20.16-3.66 22.08-3.66L22.08-3.66Q22.17-3.84 22.27-4.50L22.27-4.50Q22.31-4.69 22.31-4.73L22.31-4.73L21.42-4.73Q21.05-4.73 20.44-4.69L20.44-4.69Q20.06-4.69 19.88-4.69L19.88-4.69L19.88-5.53Q20.48-5.48 21.47-5.48L21.47-5.48L24.47-5.48Q26.02-5.48 26.39-5.53ZM40.36-8.30L40.36-8.30L40.36-7.22Q40.08-7.27 38.48-7.27L38.48-7.27L36.52-7.27L36.52-0.98L38.91-0.98Q40.41-0.98 41.20-1.08L41.20-1.08L41.20 0Q40.41-0.09 38.95-0.09L38.95-0.09L32.72-0.09Q31.31-0.09 30.80 0L30.80 0L30.80-1.08Q31.41-1.03 32.67-0.98L32.67-0.98L35.48-0.98L35.48-7.27L33.66-7.27Q32.39-7.27 31.69-7.17L31.69-7.17L31.69-8.30Q32.02-8.25 33.66-8.25L33.66-8.25L38.44-8.25Q39.98-8.25 40.36-8.30ZM49.55-9.47L49.55-9.47Q50.30-8.72 50.20-8.58L50.20-8.58Q50.16-8.53 50.02-8.53L50.02-8.53Q49.78-8.53 49.64-8.48L49.64-8.48Q49.55-8.48 49.31-8.44L49.31-8.44Q48.84-8.34 48.66-8.30L48.66-8.30L48.66-6.33L48.84-6.33Q49.73-6.33 50.06-6.38L50.06-6.38L50.06-5.48Q49.69-5.53 48.80-5.53L48.80-5.53L48.66-5.53L48.66-4.22L49.17-4.55Q49.64-3.98 50.16-3.19L50.16-3.19L49.31-2.77Q49.08-3.42 48.66-3.98L48.66-3.98L48.66-0.38Q48.66 0.66 48.70 0.94L48.70 0.94L47.67 0.94Q47.77 0.42 47.77-0.38L47.77-0.38L47.77-3.89Q47.20-2.53 46.27-1.08L46.27-1.08Q45.89-1.64 45.61-2.02L45.61-2.02Q46.59-2.77 47.77-5.53L47.77-5.53L47.16-5.53Q46.22-5.53 45.94-5.48L45.94-5.48L45.94-6.38Q46.27-6.33 47.16-6.33L47.16-6.33L47.77-6.33L47.77-8.11Q46.64-7.83 46.31-7.83L46.31-7.83L45.89-8.63Q47.67-8.77 49.55-9.47ZM51.70-8.11L51.70-6.47L54.61-6.47L54.61-8.11L51.70-8.11ZM50.34-3.75L50.34-4.78Q51.14-4.69 52.08-4.69L52.08-4.69L54.09-4.69Q54.70-4.69 55.83-4.78L55.83-4.78L55.83-3.75Q55.08-3.80 54.09-3.84L54.09-3.84L53.53-3.84L53.53-2.53L54.05-2.53Q54.66-2.53 55.69-2.63L55.69-2.63L55.69-1.69Q55.45-1.69 54.61-1.73L54.61-1.73Q54.19-1.73 54.09-1.73L54.09-1.73L53.53-1.73L53.53-0.23L54.38-0.23Q54.52-0.23 55.13-0.28L55.13-0.28Q56.06-0.33 56.34-0.33L56.34-0.33L56.34 0.56Q55.59 0.52 54.38 0.47L54.38 0.47L51.70 0.47Q50.63 0.52 49.83 0.56L49.83 0.56L49.83-0.33Q50.63-0.28 51.70-0.23L51.70-0.23L52.59-0.23L52.59-1.73L52.08-1.73Q50.86-1.73 50.44-1.69L50.44-1.69L50.44-2.63Q51.19-2.53 52.03-2.53L52.03-2.53L52.59-2.53L52.59-3.84L52.08-3.84Q51.09-3.84 50.34-3.75L50.34-3.75ZM50.67-9.05L50.67-9.05Q50.95-8.91 51.66-8.91L51.66-8.91L54.61-8.91Q55.17-8.91 55.69-9.05L55.69-9.05Q55.59-8.72 55.59-8.11L55.59-8.11L55.59-6.47Q55.59-5.86 55.69-5.53L55.69-5.53Q55.03-5.67 54.66-5.63L54.66-5.63L51.66-5.63Q51.05-5.63 50.67-5.53L50.67-5.53Q50.77-5.95 50.77-6.47L50.77-6.47L50.77-8.16Q50.77-8.48 50.67-9.05ZM63.14-9.61L63.14-9.61Q64.31-9.52 64.45-9.38L64.45-9.38Q64.45-9.33 64.41-9.23L64.41-9.23Q64.31-9 64.27-8.72L64.27-8.72Q64.17-8.11 64.17-6.05L64.17-6.05Q64.13-3.28 63.98-2.16L63.98-2.16Q63.66-0.28 61.45 1.17L61.45 1.17Q61.08 0.70 60.33 0.38L60.33 0.38Q62.77-0.33 63.09-2.67L63.09-2.67Q63.19-3.70 63.23-6.23L63.23-6.23Q63.23-8.67 63.14-9.61ZM64.92-8.02L64.92-9.05Q65.91-8.95 66.70-8.95L66.70-8.95L69.23-8.95Q70.31-8.95 71.20-9.05L71.20-9.05L71.20-8.02Q70.50-8.11 69.23-8.11L69.23-8.11L68.30-8.11L68.30-6.42L68.86-6.42Q70.03-6.42 70.78-6.56L70.78-6.56Q70.73-5.77 70.69-4.69L70.69-4.69L70.69-1.45Q70.59-0.70 68.95-0.52L68.95-0.52Q68.86-1.08 68.44-1.73L68.44-1.73Q69.66-1.59 69.75-2.20L69.75-2.20L69.75-5.58L68.30-5.58L68.30-1.17Q68.30-0.09 68.39 0.94L68.39 0.94L67.22 0.94Q67.31 0.33 67.31-1.17L67.31-1.17L67.31-5.58L66.05-5.58L66.05-2.63Q66.09-1.13 66.14-0.61L66.14-0.61L64.97-0.61Q65.06-1.13 65.06-2.67L65.06-2.67L65.06-4.83Q65.06-6.28 65.02-6.52L65.02-6.52Q66.19-6.42 66.84-6.42L66.84-6.42L67.31-6.42L67.31-8.11L66.70-8.11Q65.81-8.11 64.92-8.02L64.92-8.02ZM60.98-8.39L60.98-8.39Q62.30-8.39 62.30-8.20L62.30-8.20Q62.30-8.16 62.25-8.02L62.25-8.02Q62.06-7.64 62.06-7.22L62.06-7.22L62.06-3.70Q62.06-2.67 62.16-1.78L62.16-1.78L60.94-1.78Q60.98-2.16 61.03-3.66L61.03-3.66L61.03-7.64Q61.03-8.02 60.98-8.39ZM88.17-9.70L88.17-9.70Q89.16-9.70 89.30-9.61L89.30-9.61Q89.06-9.42 89.11-8.25L89.11-8.25L90.61-8.25Q90.38-8.77 89.95-9.23L89.95-9.23L90.70-9.52Q90.98-9.28 91.41-8.58L91.41-8.58L90.70-8.25L91.03-8.25Q91.83-8.25 92.58-8.34L92.58-8.34L92.58-7.45Q91.97-7.59 91.03-7.55L91.03-7.55L89.11-7.55L89.11-6.75L90.66-6.75Q91.27-6.75 91.73-6.84L91.73-6.84Q91.64-6.42 91.64-5.95L91.64-5.95L91.64-4.03Q91.64-3.28 91.73-2.81L91.73-2.81L90.80-2.81L90.80-3.42L89.11-3.42Q89.11-3 89.20-2.53L89.20-2.53L88.13-2.53Q88.27-2.63 88.27-3.42L88.27-3.42L86.58-3.42L86.58-2.63L85.64-2.63Q85.73-3.05 85.73-3.70L85.73-3.70L85.73-5.91Q85.73-6.47 85.64-6.84L85.64-6.84Q86.16-6.75 86.63-6.75L86.63-6.75L88.27-6.75L88.27-7.55L86.63-7.55Q85.92-7.55 85.22-7.50L85.22-7.50L85.22-8.34Q86.16-8.25 86.63-8.25L86.63-8.25L88.27-8.25Q88.27-9.19 88.17-9.70ZM83.02-9.66L83.02-9.66Q84.23-9.66 84.28-9.52L84.28-9.52Q84.23-9.42 84.14-9.28L84.14-9.28Q84-9 84-8.86L84-8.86L84-6.47Q84.19-6.47 84.47-6.52L84.47-6.52Q84.89-6.52 85.13-6.56L85.13-6.56L85.13-5.63Q84.70-5.67 84-5.67L84-5.67L84-1.17Q84 0.33 84.14 1.03L84.14 1.03L83.02 1.03Q83.02 0.89 83.06 0.66L83.06 0.66Q83.16-0.09 83.16-1.13L83.16-1.13L83.16-5.67Q82.41-5.72 81.80-5.58L81.80-5.58L81.80-6.56Q82.41-6.47 83.16-6.47L83.16-6.47L83.16-8.39Q83.16-8.63 83.06-9.38L83.06-9.38Q83.02-9.56 83.02-9.66ZM88.27-6.05L86.58-6.05L86.58-5.44L88.27-5.44L88.27-6.05ZM90.80-6.05L89.11-6.05L89.11-5.44L90.80-5.44L90.80-6.05ZM90.80-4.73L89.11-4.73L89.11-4.13L90.80-4.13L90.80-4.73ZM88.27-4.73L86.58-4.73L86.58-4.13L88.27-4.13L88.27-4.73ZM90.05-2.72L90.05-2.72Q90.94-2.72 91.17-2.58L91.17-2.58Q91.17-2.58 91.13-2.48L91.13-2.48Q90.98-2.30 91.03-2.25L91.03-2.25L91.03-2.02L91.50-2.02Q92.53-2.02 92.95-2.11L92.95-2.11L92.95-1.22Q92.20-1.31 91.50-1.31L91.50-1.31L91.03-1.31L91.03 0.19Q91.22 0.98 89.34 1.17L89.34 1.17Q89.34 0.70 88.78 0.05L88.78 0.05Q89.81 0.28 90 0.09L90 0.09Q90.14 0 90.14-0.89L90.14-0.89Q90.14-1.17 90.14-1.31L90.14-1.31L86.20-1.31Q85.69-1.31 84.66-1.22L84.66-1.22L84.66-2.11Q85.59-2.02 86.20-2.02L86.20-2.02L90.14-2.02Q90.19-2.25 90.05-2.72ZM86.34-0.75L87.19-1.17Q87.56-0.80 88.03 0L88.03 0L87.05 0.47Q86.77-0.19 86.34-0.75L86.34-0.75ZM101.63-9.47L102.80-9.56Q102.84-9.23 102.98-8.77L102.98-8.77Q103.08-8.48 103.13-8.34L103.13-8.34L104.86-8.34Q105.84-8.34 107.06-8.44L107.06-8.44Q107.11-8.44 107.11-8.34L107.11-8.34Q107.02-7.17 107.11-6.38L107.11-6.38L105.89-6.38Q105.98-6.98 105.98-7.59L105.98-7.59L98.63-7.59Q98.63-6.80 98.67-6.38L98.67-6.38L97.50-6.38Q97.69-7.83 97.55-8.39L97.55-8.39Q97.55-8.44 97.64-8.44L97.64-8.44Q98.44-8.34 99.47-8.34L99.47-8.34L102-8.34Q101.95-8.72 101.63-9.47L101.63-9.47ZM100.64-7.36L100.64-7.36Q101.77-7.08 101.77-6.94L101.77-6.94Q101.72-6.89 101.58-6.80L101.58-6.80Q101.34-6.61 101.11-6.38L101.11-6.38Q104.39-6.38 105.52-6.47L105.52-6.47Q105.56-6.47 105.56-6.42L105.56-6.42Q105.56-6.42 105.56-6.38L105.56-6.38Q104.95-5.25 103.27-4.03L103.27-4.03Q105.38-3.28 107.72-3.28L107.72-3.28Q107.67-3.23 107.63-3.14L107.63-3.14Q107.20-2.48 107.16-2.16L107.16-2.16Q106.36-2.25 105.70-2.39L105.70-2.39Q105.66-2.11 105.66-0.94L105.66-0.94Q105.66-0.42 105.70 0.52L105.70 0.52Q105.70 0.94 105.70 1.03L105.70 1.03L104.63 1.03Q104.63 0.80 104.67 0.38L104.67 0.38L100.13 0.38Q100.13 0.66 100.17 0.89L100.17 0.89L99.09 0.89Q99.19 0.42 99.19-0.52L99.19-0.52Q99.19-1.73 99.09-2.39L99.09-2.39Q98.16-2.16 97.64-2.06L97.64-2.06Q97.45-2.53 96.94-2.95L96.94-2.95Q99.52-3.23 101.39-3.98L101.39-3.98Q101.02-4.27 100.03-5.25L100.03-5.25Q99.84-5.06 99.28-4.59L99.28-4.59Q99-4.31 98.95-4.27L98.95-4.27L98.06-4.88Q99.70-5.91 100.64-7.36ZM103.97-5.67L103.97-5.67L100.69-5.67Q101.44-4.97 102.42-4.45L102.42-4.45Q103.27-4.97 103.97-5.67ZM102.33-3.56L102.33-3.56Q100.73-2.86 99.28-2.44L99.28-2.44Q99.89-2.39 100.41-2.39L100.41-2.39L104.34-2.39Q105-2.39 105.61-2.44L105.61-2.44Q103.55-2.95 102.33-3.56ZM104.67-1.69L100.13-1.69L100.13-0.23L104.67-0.23L104.67-1.69Z" transform="translate(-0.515625, 9.703125)"></path></g></g></g></g></g></g><mask id="18031136-e652-46fb-8d79-919d74401055"><g fill="white"><g><rect fill-opacity="1" stroke-width="2" x="0" y="0" width="97.5" height="72.06528005676526" class="image-rect"></rect> <svg x="0" y="0" width="97.5" height="72.06528005676526" class="image-svg-svg primary" style="overflow: visible;" filter="url(#colorsf5689670167)"><svg xmlns="http://www.w3.org/2000/svg" viewBox="0 0 46 34"><g><path d="M39 34H7a7 7 0 0 1-7-7V7a7 7 0 0 1 7-7h32a7 7 0 0 1 7 7v20a7 7 0 0 1-7 7z"></path></g></svg></svg> <defs>  </defs></g></g> <g transform="translate(76.17000198364258,39.57607650756836)" fill="black" stroke="black" stroke-width="6" stroke-linejoin="round"><g data-gra="path-name" fill-rule="" class="tp-name" transform="translate(0,0)"><g transform="scale(1)"><g><path d="M10.3 0L2.93 0 2.93-27.13 10.3-27.13 10.3 0ZM33.9-8.24L33.9-8.24Q33.9-5.71 32.62-3.76 31.34-1.8 28.93-0.71 26.51 0.37 23.27 0.37L23.27 0.37Q20.56 0.37 18.72-0.01 16.88-0.39 14.9-1.34L14.9-1.34 14.9-7.87Q17-6.79 19.26-6.19 21.52-5.58 23.42-5.58L23.42-5.58Q25.05-5.58 25.81-6.15 26.57-6.72 26.57-7.61L26.57-7.61Q26.57-8.16 26.26-8.58 25.96-9 25.28-9.43 24.6-9.85 21.67-11.17L21.67-11.17Q19.02-12.38 17.69-13.51 16.37-14.64 15.73-16.11 15.08-17.57 15.08-19.58L15.08-19.58Q15.08-23.32 17.81-25.42 20.54-27.52 25.31-27.52L25.31-27.52Q29.52-27.52 33.9-25.57L33.9-25.57 31.65-19.91Q27.85-21.65 25.09-21.65L25.09-21.65Q23.66-21.65 23.01-21.15 22.36-20.65 22.36-19.91L22.36-19.91Q22.36-19.11 23.18-18.48 24.01-17.85 27.67-16.18L27.67-16.18Q31.17-14.6 32.54-12.79 33.9-10.98 33.9-8.24ZM45.31-10.19L45.31 0 38.09 0 38.09-27.13 54.12-27.13 54.12-21.25 45.31-21.25 45.31-16.07 53.44-16.07 53.44-10.19 45.31-10.19ZM56.44 8.52L56.44 8.52Q54.44 8.52 52.64 8.13L52.64 8.13 52.64 2.43Q53.23 2.54 53.9 2.68 54.57 2.82 55.35 2.82L55.35 2.82Q57.17 2.82 57.95 1.73 58.73 0.63 58.73-2.02L58.73-2.02 58.73-27.13 66.09-27.13 66.09-2.65Q66.09 2.86 63.68 5.69 61.27 8.52 56.44 8.52Z" transform="translate(-2.930000066757202, 27.520000457763672)"></path></g>       </g></g> <g data-gra="path-slogan" fill-rule="" class="tp-slogan" transform="translate(-22.020004272460938,43.040000915527344)">  <g transform="scale(1, 1)"><g transform="scale(1)"><path d="M7.45-9.70L7.45-9.70Q8.39-9.56 8.67-9.33L8.67-9.33Q8.67-9.28 8.58-9.14L8.58-9.14Q8.16-8.72 7.69-7.92L7.69-7.92L9.19-7.92Q10.45-7.92 11.48-8.02L11.48-8.02L11.48-6.89Q10.97-6.98 9.19-6.98L9.19-6.98L2.63-6.98Q1.59-6.98 0.52-6.89L0.52-6.89L0.52-8.02Q1.83-7.92 2.58-7.92L2.58-7.92L4.17-7.92Q3.84-8.72 3.38-9.28L3.38-9.28L4.27-9.61Q4.73-9.05 5.20-8.30L5.20-8.30L4.31-7.92L6.70-7.92Q7.17-8.53 7.45-9.70ZM9.14-6.38L9.14-6.38Q10.36-6.38 10.41-6.23L10.41-6.23Q10.41-6.14 10.31-6L10.31-6Q10.17-5.72 10.17-5.39L10.17-5.39L10.17 0.19Q10.22 1.13 8.06 1.17L8.06 1.17Q8.06 0.61 7.64 0.05L7.64 0.05Q9.09 0.23 9.19-0.42L9.19-0.42L9.19-5.34Q9.19-5.77 9.14-6.38ZM6.98-5.81L6.98-5.81Q8.16-5.81 8.20-5.67L8.20-5.67Q8.20-5.58 8.16-5.39L8.16-5.39Q8.06-5.16 8.06-4.97L8.06-4.97L8.06-2.58Q8.06-1.45 8.11-0.94L8.11-0.94L6.98-0.94Q6.98-1.08 6.98-1.50L6.98-1.50Q7.03-2.20 7.03-2.63L7.03-2.63L7.03-5.11Q7.03-5.81 6.98-5.81ZM5.02-5.44L2.63-5.44L2.63-4.22L5.02-4.22L5.02-5.44ZM5.02-2.25L5.02-3.52L2.63-3.52L2.63-2.25L5.02-2.25ZM1.64-6.28L1.64-6.28Q2.30-6.19 2.72-6.23L2.72-6.23L4.92-6.23Q5.30-6.19 6-6.28L6-6.28Q5.86-5.86 5.91-5.58L5.91-5.58L5.91 0.05Q5.95 0.98 4.08 1.03L4.08 1.03Q4.08 0.38 3.61-0.05L3.61-0.05Q4.92 0.14 5.02-0.19L5.02-0.19L5.02-1.55L2.63-1.55L2.63-0.38Q2.63 0.42 2.77 0.98L2.77 0.98L1.59 0.98Q1.73 0.05 1.73-0.33L1.73-0.33L1.73-5.58Q1.73-5.86 1.64-6.28ZM22.36-9.47L22.36-9.47Q23.44-9.47 23.44-9.33L23.44-9.33Q23.44-9.28 23.44-9.19L23.44-9.19Q23.34-9 23.34-8.86L23.34-8.86L23.34-7.08L24.70-7.08L24.70-8.30Q24.70-8.77 24.66-8.91L24.66-8.91Q24.75-8.91 24.98-8.86L24.98-8.86Q25.78-8.86 25.73-8.72L25.73-8.72Q25.73-8.67 25.69-8.58L25.69-8.58Q25.59-8.39 25.59-7.97L25.59-7.97L25.59-7.41Q25.59-6.52 25.69-6.23L25.69-6.23Q24.70-6.33 23.63-6.33L23.63-6.33L21.94-6.33Q20.91-6.33 20.25-6.23L20.25-6.23Q20.34-6.75 20.34-7.59L20.34-7.59Q20.34-8.67 20.25-8.95L20.25-8.95Q21.28-8.95 21.33-8.81L21.33-8.81Q21.33-8.77 21.28-8.72L21.28-8.72Q21.23-8.53 21.23-8.34L21.23-8.34L21.23-7.08L22.45-7.08L22.45-8.67Q22.45-9.33 22.36-9.47ZM17.02-9L18-9.23Q18.23-8.81 18.66-7.55L18.66-7.55L17.58-7.27Q17.44-8.02 17.02-9L17.02-9ZM15.56-6.23L15.56-7.08Q15.66-7.08 16.03-7.08L16.03-7.08Q16.59-7.03 16.97-7.03L16.97-7.03L18.28-7.03Q19.31-7.08 19.83-7.13L19.83-7.13L19.83-6.23Q19.55-6.28 18.28-6.28L18.28-6.28L16.92-6.28Q15.94-6.28 15.56-6.23L15.56-6.23ZM18.47-5.77L18.47-5.77Q19.59-5.58 19.55-5.48L19.55-5.48Q19.55-5.44 19.50-5.34L19.50-5.34Q19.31-5.11 19.22-4.78L19.22-4.78Q18.84-2.95 18.47-1.59L18.47-1.59L19.59-1.83L19.55-1.03Q18.61-0.80 17.48-0.47L17.48-0.47Q16.13-0.05 15.80 0L15.80 0Q15.61-0.56 15.52-1.08L15.52-1.08L17.67-1.41Q18.28-3.89 18.47-5.77ZM16.27-5.44L17.16-5.53Q17.44-4.17 17.58-2.39L17.58-2.39L16.64-2.30Q16.50-4.03 16.27-5.44L16.27-5.44ZM26.39-5.53L26.39-5.53L26.39-4.64Q25.59-4.73 24.47-4.73L24.47-4.73L23.25-4.73Q23.16-4.36 22.92-3.66L22.92-3.66L24.33-3.66Q25.27-3.66 25.97-3.66L25.97-3.66Q25.88-2.91 25.88-2.20L25.88-2.20L25.88 0.14Q26.06 0.80 24.42 0.94L24.42 0.94Q24.38 0.33 24.09-0.05L24.09-0.05Q25.13 0.05 25.08-0.42L25.08-0.42L25.08-2.91L24-2.91L24-1.03Q24-0.56 24.05-0.14L24.05-0.14L23.20-0.14Q23.30-0.42 23.30-1.03L23.30-1.03L23.30-2.91L22.41-2.91L22.41-1.13Q22.41-0.14 22.45-0.09L22.45-0.09L21.61-0.09Q21.70-0.23 21.70-1.17L21.70-1.17L21.70-2.91L20.86-2.91L20.86-0.33Q20.86 0.70 20.91 0.75L20.91 0.75L19.97 0.75Q20.06 0.47 20.06-0.33L20.06-0.33L20.06-2.25Q20.06-3 19.97-3.70L19.97-3.70Q20.16-3.66 22.08-3.66L22.08-3.66Q22.17-3.84 22.27-4.50L22.27-4.50Q22.31-4.69 22.31-4.73L22.31-4.73L21.42-4.73Q21.05-4.73 20.44-4.69L20.44-4.69Q20.06-4.69 19.88-4.69L19.88-4.69L19.88-5.53Q20.48-5.48 21.47-5.48L21.47-5.48L24.47-5.48Q26.02-5.48 26.39-5.53ZM40.36-8.30L40.36-8.30L40.36-7.22Q40.08-7.27 38.48-7.27L38.48-7.27L36.52-7.27L36.52-0.98L38.91-0.98Q40.41-0.98 41.20-1.08L41.20-1.08L41.20 0Q40.41-0.09 38.95-0.09L38.95-0.09L32.72-0.09Q31.31-0.09 30.80 0L30.80 0L30.80-1.08Q31.41-1.03 32.67-0.98L32.67-0.98L35.48-0.98L35.48-7.27L33.66-7.27Q32.39-7.27 31.69-7.17L31.69-7.17L31.69-8.30Q32.02-8.25 33.66-8.25L33.66-8.25L38.44-8.25Q39.98-8.25 40.36-8.30ZM49.55-9.47L49.55-9.47Q50.30-8.72 50.20-8.58L50.20-8.58Q50.16-8.53 50.02-8.53L50.02-8.53Q49.78-8.53 49.64-8.48L49.64-8.48Q49.55-8.48 49.31-8.44L49.31-8.44Q48.84-8.34 48.66-8.30L48.66-8.30L48.66-6.33L48.84-6.33Q49.73-6.33 50.06-6.38L50.06-6.38L50.06-5.48Q49.69-5.53 48.80-5.53L48.80-5.53L48.66-5.53L48.66-4.22L49.17-4.55Q49.64-3.98 50.16-3.19L50.16-3.19L49.31-2.77Q49.08-3.42 48.66-3.98L48.66-3.98L48.66-0.38Q48.66 0.66 48.70 0.94L48.70 0.94L47.67 0.94Q47.77 0.42 47.77-0.38L47.77-0.38L47.77-3.89Q47.20-2.53 46.27-1.08L46.27-1.08Q45.89-1.64 45.61-2.02L45.61-2.02Q46.59-2.77 47.77-5.53L47.77-5.53L47.16-5.53Q46.22-5.53 45.94-5.48L45.94-5.48L45.94-6.38Q46.27-6.33 47.16-6.33L47.16-6.33L47.77-6.33L47.77-8.11Q46.64-7.83 46.31-7.83L46.31-7.83L45.89-8.63Q47.67-8.77 49.55-9.47ZM51.70-8.11L51.70-6.47L54.61-6.47L54.61-8.11L51.70-8.11ZM50.34-3.75L50.34-4.78Q51.14-4.69 52.08-4.69L52.08-4.69L54.09-4.69Q54.70-4.69 55.83-4.78L55.83-4.78L55.83-3.75Q55.08-3.80 54.09-3.84L54.09-3.84L53.53-3.84L53.53-2.53L54.05-2.53Q54.66-2.53 55.69-2.63L55.69-2.63L55.69-1.69Q55.45-1.69 54.61-1.73L54.61-1.73Q54.19-1.73 54.09-1.73L54.09-1.73L53.53-1.73L53.53-0.23L54.38-0.23Q54.52-0.23 55.13-0.28L55.13-0.28Q56.06-0.33 56.34-0.33L56.34-0.33L56.34 0.56Q55.59 0.52 54.38 0.47L54.38 0.47L51.70 0.47Q50.63 0.52 49.83 0.56L49.83 0.56L49.83-0.33Q50.63-0.28 51.70-0.23L51.70-0.23L52.59-0.23L52.59-1.73L52.08-1.73Q50.86-1.73 50.44-1.69L50.44-1.69L50.44-2.63Q51.19-2.53 52.03-2.53L52.03-2.53L52.59-2.53L52.59-3.84L52.08-3.84Q51.09-3.84 50.34-3.75L50.34-3.75ZM50.67-9.05L50.67-9.05Q50.95-8.91 51.66-8.91L51.66-8.91L54.61-8.91Q55.17-8.91 55.69-9.05L55.69-9.05Q55.59-8.72 55.59-8.11L55.59-8.11L55.59-6.47Q55.59-5.86 55.69-5.53L55.69-5.53Q55.03-5.67 54.66-5.63L54.66-5.63L51.66-5.63Q51.05-5.63 50.67-5.53L50.67-5.53Q50.77-5.95 50.77-6.47L50.77-6.47L50.77-8.16Q50.77-8.48 50.67-9.05ZM63.14-9.61L63.14-9.61Q64.31-9.52 64.45-9.38L64.45-9.38Q64.45-9.33 64.41-9.23L64.41-9.23Q64.31-9 64.27-8.72L64.27-8.72Q64.17-8.11 64.17-6.05L64.17-6.05Q64.13-3.28 63.98-2.16L63.98-2.16Q63.66-0.28 61.45 1.17L61.45 1.17Q61.08 0.70 60.33 0.38L60.33 0.38Q62.77-0.33 63.09-2.67L63.09-2.67Q63.19-3.70 63.23-6.23L63.23-6.23Q63.23-8.67 63.14-9.61ZM64.92-8.02L64.92-9.05Q65.91-8.95 66.70-8.95L66.70-8.95L69.23-8.95Q70.31-8.95 71.20-9.05L71.20-9.05L71.20-8.02Q70.50-8.11 69.23-8.11L69.23-8.11L68.30-8.11L68.30-6.42L68.86-6.42Q70.03-6.42 70.78-6.56L70.78-6.56Q70.73-5.77 70.69-4.69L70.69-4.69L70.69-1.45Q70.59-0.70 68.95-0.52L68.95-0.52Q68.86-1.08 68.44-1.73L68.44-1.73Q69.66-1.59 69.75-2.20L69.75-2.20L69.75-5.58L68.30-5.58L68.30-1.17Q68.30-0.09 68.39 0.94L68.39 0.94L67.22 0.94Q67.31 0.33 67.31-1.17L67.31-1.17L67.31-5.58L66.05-5.58L66.05-2.63Q66.09-1.13 66.14-0.61L66.14-0.61L64.97-0.61Q65.06-1.13 65.06-2.67L65.06-2.67L65.06-4.83Q65.06-6.28 65.02-6.52L65.02-6.52Q66.19-6.42 66.84-6.42L66.84-6.42L67.31-6.42L67.31-8.11L66.70-8.11Q65.81-8.11 64.92-8.02L64.92-8.02ZM60.98-8.39L60.98-8.39Q62.30-8.39 62.30-8.20L62.30-8.20Q62.30-8.16 62.25-8.02L62.25-8.02Q62.06-7.64 62.06-7.22L62.06-7.22L62.06-3.70Q62.06-2.67 62.16-1.78L62.16-1.78L60.94-1.78Q60.98-2.16 61.03-3.66L61.03-3.66L61.03-7.64Q61.03-8.02 60.98-8.39ZM88.17-9.70L88.17-9.70Q89.16-9.70 89.30-9.61L89.30-9.61Q89.06-9.42 89.11-8.25L89.11-8.25L90.61-8.25Q90.38-8.77 89.95-9.23L89.95-9.23L90.70-9.52Q90.98-9.28 91.41-8.58L91.41-8.58L90.70-8.25L91.03-8.25Q91.83-8.25 92.58-8.34L92.58-8.34L92.58-7.45Q91.97-7.59 91.03-7.55L91.03-7.55L89.11-7.55L89.11-6.75L90.66-6.75Q91.27-6.75 91.73-6.84L91.73-6.84Q91.64-6.42 91.64-5.95L91.64-5.95L91.64-4.03Q91.64-3.28 91.73-2.81L91.73-2.81L90.80-2.81L90.80-3.42L89.11-3.42Q89.11-3 89.20-2.53L89.20-2.53L88.13-2.53Q88.27-2.63 88.27-3.42L88.27-3.42L86.58-3.42L86.58-2.63L85.64-2.63Q85.73-3.05 85.73-3.70L85.73-3.70L85.73-5.91Q85.73-6.47 85.64-6.84L85.64-6.84Q86.16-6.75 86.63-6.75L86.63-6.75L88.27-6.75L88.27-7.55L86.63-7.55Q85.92-7.55 85.22-7.50L85.22-7.50L85.22-8.34Q86.16-8.25 86.63-8.25L86.63-8.25L88.27-8.25Q88.27-9.19 88.17-9.70ZM83.02-9.66L83.02-9.66Q84.23-9.66 84.28-9.52L84.28-9.52Q84.23-9.42 84.14-9.28L84.14-9.28Q84-9 84-8.86L84-8.86L84-6.47Q84.19-6.47 84.47-6.52L84.47-6.52Q84.89-6.52 85.13-6.56L85.13-6.56L85.13-5.63Q84.70-5.67 84-5.67L84-5.67L84-1.17Q84 0.33 84.14 1.03L84.14 1.03L83.02 1.03Q83.02 0.89 83.06 0.66L83.06 0.66Q83.16-0.09 83.16-1.13L83.16-1.13L83.16-5.67Q82.41-5.72 81.80-5.58L81.80-5.58L81.80-6.56Q82.41-6.47 83.16-6.47L83.16-6.47L83.16-8.39Q83.16-8.63 83.06-9.38L83.06-9.38Q83.02-9.56 83.02-9.66ZM88.27-6.05L86.58-6.05L86.58-5.44L88.27-5.44L88.27-6.05ZM90.80-6.05L89.11-6.05L89.11-5.44L90.80-5.44L90.80-6.05ZM90.80-4.73L89.11-4.73L89.11-4.13L90.80-4.13L90.80-4.73ZM88.27-4.73L86.58-4.73L86.58-4.13L88.27-4.13L88.27-4.73ZM90.05-2.72L90.05-2.72Q90.94-2.72 91.17-2.58L91.17-2.58Q91.17-2.58 91.13-2.48L91.13-2.48Q90.98-2.30 91.03-2.25L91.03-2.25L91.03-2.02L91.50-2.02Q92.53-2.02 92.95-2.11L92.95-2.11L92.95-1.22Q92.20-1.31 91.50-1.31L91.50-1.31L91.03-1.31L91.03 0.19Q91.22 0.98 89.34 1.17L89.34 1.17Q89.34 0.70 88.78 0.05L88.78 0.05Q89.81 0.28 90 0.09L90 0.09Q90.14 0 90.14-0.89L90.14-0.89Q90.14-1.17 90.14-1.31L90.14-1.31L86.20-1.31Q85.69-1.31 84.66-1.22L84.66-1.22L84.66-2.11Q85.59-2.02 86.20-2.02L86.20-2.02L90.14-2.02Q90.19-2.25 90.05-2.72ZM86.34-0.75L87.19-1.17Q87.56-0.80 88.03 0L88.03 0L87.05 0.47Q86.77-0.19 86.34-0.75L86.34-0.75ZM101.63-9.47L102.80-9.56Q102.84-9.23 102.98-8.77L102.98-8.77Q103.08-8.48 103.13-8.34L103.13-8.34L104.86-8.34Q105.84-8.34 107.06-8.44L107.06-8.44Q107.11-8.44 107.11-8.34L107.11-8.34Q107.02-7.17 107.11-6.38L107.11-6.38L105.89-6.38Q105.98-6.98 105.98-7.59L105.98-7.59L98.63-7.59Q98.63-6.80 98.67-6.38L98.67-6.38L97.50-6.38Q97.69-7.83 97.55-8.39L97.55-8.39Q97.55-8.44 97.64-8.44L97.64-8.44Q98.44-8.34 99.47-8.34L99.47-8.34L102-8.34Q101.95-8.72 101.63-9.47L101.63-9.47ZM100.64-7.36L100.64-7.36Q101.77-7.08 101.77-6.94L101.77-6.94Q101.72-6.89 101.58-6.80L101.58-6.80Q101.34-6.61 101.11-6.38L101.11-6.38Q104.39-6.38 105.52-6.47L105.52-6.47Q105.56-6.47 105.56-6.42L105.56-6.42Q105.56-6.42 105.56-6.38L105.56-6.38Q104.95-5.25 103.27-4.03L103.27-4.03Q105.38-3.28 107.72-3.28L107.72-3.28Q107.67-3.23 107.63-3.14L107.63-3.14Q107.20-2.48 107.16-2.16L107.16-2.16Q106.36-2.25 105.70-2.39L105.70-2.39Q105.66-2.11 105.66-0.94L105.66-0.94Q105.66-0.42 105.70 0.52L105.70 0.52Q105.70 0.94 105.70 1.03L105.70 1.03L104.63 1.03Q104.63 0.80 104.67 0.38L104.67 0.38L100.13 0.38Q100.13 0.66 100.17 0.89L100.17 0.89L99.09 0.89Q99.19 0.42 99.19-0.52L99.19-0.52Q99.19-1.73 99.09-2.39L99.09-2.39Q98.16-2.16 97.64-2.06L97.64-2.06Q97.45-2.53 96.94-2.95L96.94-2.95Q99.52-3.23 101.39-3.98L101.39-3.98Q101.02-4.27 100.03-5.25L100.03-5.25Q99.84-5.06 99.28-4.59L99.28-4.59Q99-4.31 98.95-4.27L98.95-4.27L98.06-4.88Q99.70-5.91 100.64-7.36ZM103.97-5.67L103.97-5.67L100.69-5.67Q101.44-4.97 102.42-4.45L102.42-4.45Q103.27-4.97 103.97-5.67ZM102.33-3.56L102.33-3.56Q100.73-2.86 99.28-2.44L99.28-2.44Q99.89-2.39 100.41-2.39L100.41-2.39L104.34-2.39Q105-2.39 105.61-2.44L105.61-2.44Q103.55-2.95 102.33-3.56ZM104.67-1.69L100.13-1.69L100.13-0.23L104.67-0.23L104.67-1.69Z" transform="translate(-0.515625, 9.703125)"></path></g></g></g></g></mask><defs v-gra="od"><linearGradient x1="0" y1="1" x2="0" y2="0" id="8ebb1be7-d007-4cf3-a8fd-38b79b22fae4"><stop offset="0%" stop-color="#4481eb"></stop><stop offset="100%" stop-color="#05befe"></stop></linearGradient><filter id="42443b3f1de60f6b6fd3b6a9844b4764" filterUnits="objectBoundingBox"><feColorMatrix type="matrix" values="0 0 0 0 0.99609375  0 0 0 0 0.99609375  0 0 0 0 0.99609375  0 0 0 1 0"></feColorMatrix></filter></defs><defs v-gra="id"><filter id="7530af08-1d49-4f8f-95ee-02066d8b9b93" filterUnits="userSpaceOnUse"><feColorMatrix type="matrix" values="0 0 0 0 0.99609375  0 0 0 0 0.99609375  0 0 0 0 0.99609375  0 0 0 1 0"></feColorMatrix></filter><linearGradient x1="0" y1="1" x2="0" y2="0" id="aBfoWOoDXKyg5kQ648dRR"><stop offset="0%" stop-color="#4481eb"></stop><stop offset="100%" stop-color="#05befe"></stop></linearGradient><filter id="42443b3f1de60f6b6fd3b6a9844b4764" filterUnits="objectBoundingBox"><feColorMatrix type="matrix" values="0 0 0 0 0.99609375  0 0 0 0 0.99609375  0 0 0 0 0.99609375  0 0 0 1 0"></feColorMatrix></filter></defs><mask v-gra="im" id="aa80b6ca-59af-4a04-a20e-1eeb29f805d5"><g mask="url(#18031136-e652-46fb-8d79-919d74401055)" filter="url(#7530af08-1d49-4f8f-95ee-02066d8b9b93)"><g><rect fill="#ffffff" fill-opacity="0" stroke-width="2" x="0" y="0" width="97.5" height="72.06528005676526" class="image-rect"></rect> <svg x="0" y="0" width="97.5" height="72.06528005676526" filtersec="colorsf5689670167" class="image-svg-svg primary" style="overflow: visible;"><svg xmlns="http://www.w3.org/2000/svg" viewBox="0 0 46 34"><g><path d="M39 34H7a7 7 0 0 1-7-7V7a7 7 0 0 1 7-7h32a7 7 0 0 1 7 7v20a7 7 0 0 1-7 7z"></path></g></svg></svg> <defs><filter id="colors6495607707"><feColorMatrix type="matrix" values="0 0 0 0 0  0 0 0 0 0.9453125  0 0 0 0 0.9921875  0 0 0 1 0" class="icon-fecolormatrix"></feColorMatrix></filter> <filter id="colorsf5689670167"><feColorMatrix type="matrix" values="0 0 0 0 0.99609375  0 0 0 0 0.99609375  0 0 0 0 0.99609375  0 0 0 1 0" class="icon-fecolormatrix"></feColorMatrix></filter> <filter id="colorsb9470665182"><feColorMatrix type="matrix" values="0 0 0 0 0  0 0 0 0 0  0 0 0 0 0  0 0 0 1 0" class="icon-fecolormatrix"></feColorMatrix></filter></defs></g></g></mask></svg>